<svg xmlns="http://www.w3.org/2000/svg" xmlns:xlink="http://www.w3.org/1999/xlink" viewBox="0 0 208 47">
    <defs>
        <linearGradient id="symbol-gradient" x1="0%" y1="0%" x2="100%" y2="0%">
            <stop offset="0%" stop-color="#008bb0"></stop>
            <stop offset="100%" stop-color="#06ab88"></stop>
        </linearGradient>
        <linearGradient id="ai-gradient" x1="0%" y1="0%" x2="100%" y2="0%">
            <stop offset="0%" stop-color="#008bb0"></stop>
            <stop offset="100%" stop-color="#06ab88"></stop>
        </linearGradient>
    </defs>
    <g class="logo-symbol">
        <path fill="url(#symbol-gradient)" d="M34,28c-1-.7-2.2-.9-3.3-.7,0,0,0,0,0,0-2.5.5-3.9,2.7-3.5,5.2.5,2.5,2.6,4,5.1,3.5h0c2.5-.5,4-2.6,3.5-5.1-.2-1.2-.9-2.2-1.9-2.9h0Z"></path>
        <path fill="url(#symbol-gradient)" d="M35.7,11.8l-.6-.5-1.3-1.1c-.4-.4-1.1-.4-1.5,0-.3.2-1.3,1.5-1.3,1.5l-1.3,1.6-9,11.8c-1,1.4-2.1,2.7-3.4,3.9-1.3,1.1-2.8,2-4.5,2.3-1.8.2-3.7-.3-5-1.5-1.2-1-2-2.4-2.4-3.9-.8-3,0-6.3,2.1-8.5,2.1-2.2,5.4-3.3,8.4-2.6,1.8.4,3.4,1.4,4.8,2.6,0,0,0,0,0,0,.4.3.4.4.5.4,.4.5,1.2.5,1.6,0l1.6-2c.3-.4.3-1.1,0-1.5,0-.1-.2-.2-.2-.3,0,0,0,0,0,0,0,0-.1-.1-.1-.1h0c-.4-.4-.8-.7-1.3-1.1-.4-.3-.8-.6-1.3-.9-.9-.5-1.8-.9-2.8-1.3-1.9-.6-4-.9-6-.6-.3,0-.5,0-.8.1-4.2.8-8,3.6-10,7.4C-.4,21.9,0,27.8,3.1,31.8c3.1,4,9,5.7,13.7,3.8,3.7-1.5,6.3-4.9,8.7-8.1,3-4.1,6-8.1,9.1-12.2,0,0,.1-.2.2-.2l1.2-1.6c.4-.5.3-1.3-.2-1.7h0Z"></path>
    </g>
    <g class="alpha-text">
        <path class="letter-a" fill="#fff" d="M39.4,23.2c0-3.9,1.2-7.1,3.5-9.5,2.4-2.5,5.4-3.7,9.1-3.7s8.1,1.9,10.3,5.8v-5.4h3.1v25.8h-3.1v-5.4c-1,1.8-2.5,3.3-4.2,4.3-1.8,1-3.8,1.5-6.1,1.5-3.7,0-6.7-1.3-9.1-3.8-2.4-2.5-3.6-5.7-3.6-9.5h0ZM45.2,30.6c1.8,1.9,4.2,2.9,7.2,2.9s5.4-1,7.2-2.9c1.8-1.9,2.7-4.4,2.7-7.5s-.9-5.6-2.7-7.5c-1.8-1.9-4.2-2.9-7.2-2.9s-5.4,1-7.3,2.9c-1.8,1.9-2.8,4.4-2.8,7.4s.9,5.5,2.8,7.4Z"></path>
        <path class="letter-l" fill="#fff" d="M75.8,36h-3.1V-.4h3.1v36.4Z"></path>
        <path class="letter-p" fill="#fff" d="M83.1,10.3h3.1v5.5c1-1.8,2.4-3.3,4.2-4.3,1.8-1,3.8-1.6,6.1-1.6,3.7,0,6.7,1.3,9.1,3.8,2.4,2.5,3.6,5.7,3.6,9.5s-1.2,7.1-3.6,9.5c-2.4,2.5-5.4,3.7-9.2,3.7s-8.1-1.9-10.3-5.8v15.7h-3.1V10.3ZM88.9,30.7c1.8,1.9,4.2,2.9,7.2,2.9s5.4-1,7.3-2.9c1.8-1.9,2.8-4.4,2.8-7.4s-.9-5.6-2.8-7.5c-1.8-1.9-4.3-2.9-7.3-2.9s-5.4,1-7.2,2.9c-1.8,1.9-2.7,4.4-2.7,7.5s.9,5.5,2.7,7.4Z"></path>
        <path class="letter-h" fill="#fff" d="M113.9-.4h3.1v14.5c1.9-2.8,4.7-4.3,8.6-4.3s5.3.9,7.3,2.6c2,1.8,3,4.3,3,7.6v15.9h-3.1v-15.5c0-2.5-.8-4.4-2.3-5.8-1.5-1.4-3.4-2.1-5.7-2.1s-4.2.7-5.7,2.1c-1.5,1.4-2.2,3.4-2.2,5.8v15.5h-3.1V-.4h0Z"></path>
        <path class="letter-a2" fill="#fff" d="M140,23.2c0-3.9,1.2-7.1,3.5-9.5,2.4-2.5,5.4-3.7,9.1-3.7s8.1,1.9,10.3,5.8v-5.4h3.1v25.8h-3.1v-5.4c-1,1.8-2.5,3.3-4.2,4.3-1.8,1-3.8,1.5-6.1,1.5-3.7,0-6.7-1.3-9.1-3.8-2.4-2.5-3.6-5.7-3.6-9.5h0ZM145.8,30.6c1.8,1.9,4.2,2.9,7.2,2.9s5.4-1,7.2-2.9c1.8-1.9,2.7-4.4,2.7-7.5s-.9-5.6-2.7-7.5c-1.8-1.9-4.2-2.9-7.2-2.9s-5.4,1-7.3,2.9c-1.8,1.9-2.8,4.4-2.8,7.4s.9,5.5,2.8,7.4Z"></path>
    </g>
    <g class="ai-text">
        <path d="M170.6,23.3c0-3.8,1.2-6.9,3.6-9.4,2.4-2.4,5.5-3.7,9.2-3.7s8.2,1.9,10.4,5.7v-5.3h3.1v25.3h-3.1v-5.3c-1.1,1.8-2.5,3.2-4.3,4.2-1.8,1-3.8,1.5-6.1,1.5-3.7,0-6.8-1.2-9.2-3.7-2.4-2.5-3.6-5.6-3.6-9.4h0ZM176.4,30.6c1.8,1.9,4.3,2.9,7.3,2.9s5.5-.9,7.3-2.8c1.8-1.9,2.8-4.3,2.8-7.3s-.9-5.4-2.8-7.3c-1.9-1.9-4.3-2.8-7.3-2.8s-5.5,1-7.3,2.9c-1.9,1.9-2.8,4.3-2.8,7.3s.9,5.4,2.8,7.3ZM204.9,1.3c.4-.4.9-.5,1.4-.5s1.1.2,1.5.5.6.8.6,1.4-.2,1.1-.6,1.5c-.4.4-.9.6-1.5.6s-1-.2-1.4-.6c-.4-.4-.6-.9-.6-1.5s.2-1,.6-1.4ZM204.8,10.6h3.1v25.3h-3.1V10.6Z"></path>
    </g>
</svg>